<?xml version="1.0" encoding="UTF-8" standalone="no"?>
<!-- Created with Inkscape (http://www.inkscape.org/) -->

<svg
   width="512"
   height="512"
   viewBox="0 0 512 512"
   version="1.1"
   id="svg1"
   xmlns="http://www.w3.org/2000/svg"
   xmlns:svg="http://www.w3.org/2000/svg">
  <defs
     id="defs1" />
  <g
     id="layer1">
    <g
       id="g1"
       transform="translate(-43.2838,-96.000015)">
      <path
         id="path2152"
         style="fill:#ffffff;fill-opacity:1;stroke:none;stroke-width:8.99999;stroke-dasharray:none;stroke-opacity:1"
         d="M 299.27909,97 A 253.28621,255.00094 0 0 1 552.5676,352.00005 253.28621,255.00094 0 0 1 299.27909,607.00003 253.28621,255.00094 0 0 1 46,352.00005 253.28621,255.00094 0 0 1 299.27909,97 Z m 0,46.39067 A 205.44657,208.60689 0 0 0 93.839655,352.00005 205.44657,208.60689 0 0 0 299.27909,560.60941 205.44657,208.60689 0 0 0 504.72802,352.00005 205.44657,208.60689 0 0 0 299.27909,143.39067 Z" />
      <path
         id="path3621"
         style="fill:#ffffff;stroke-width:1"
         d="m 298.5488,317.80704 c -47.71661,0.0347 -86.89118,35.29033 -88.74312,79.86953 l -0.62924,79.48565 h 0.10685 c 1.60345,22.90093 20.79121,40.6678 43.92559,40.67224 2.28761,-0.004 4.57005,-0.18496 6.82929,-0.54265 h 77.75738 c 2.10891,0.33591 4.23822,0.51404 6.37323,0.53399 22.76461,-0.0299 41.63552,-17.78509 43.21842,-40.66358 h 0.13567 v -2.33799 c 0.0149,-0.23314 0.0272,-0.46552 0.0375,-0.6985 -0.0105,-0.2331 -0.0226,-0.46552 -0.0375,-0.69852 v -75.75064 h -0.2338 c -1.85204,-44.57901 -41.02382,-79.8348 -88.74023,-79.86953 z m 0.28864,46.93572 c 1.60398,7e-5 3.20675,0.0846 4.41912,0.24823 14.56793,1.96635 26.10245,13.51355 28.0647,28.09909 0.32623,2.42489 0.32113,6.41418 -0.0118,8.83815 -1.35701,9.88759 -7.15456,18.63783 -15.72523,23.73486 -2.10294,1.25062 -3.50682,3.93772 -2.9586,6.3241 l 8.63619,37.59535 a 3.5305263,3.530495 0 0 1 -3.44061,4.32093 h -37.06142 a 3.5999104,3.5998785 0 0 1 -3.52432,-4.33825 l 7.88282,-37.5636 c 0.50277,-2.39638 -0.93983,-5.08998 -3.04228,-6.34141 -8.56557,-5.09843 -14.3578,-13.84796 -15.71369,-23.73198 -0.33254,-2.424 -0.33777,-6.41327 -0.0118,-8.83815 1.96238,-14.58658 13.49844,-26.13676 28.0676,-28.10197 1.21239,-0.16354 2.81513,-0.24541 4.4191,-0.24535 z" />
      <path
         id="path1238"
         style="fill:#ffffff;stroke-width:0.958854"
         d="m 299.56712,180.84541 c 44.90879,0.0149 81.36638,35.13175 81.57899,78.57988 v 15.35517 h -0.1694 a 18.431085,17.572927 0 0 1 0.1694,2.21407 18.431085,17.572927 0 0 1 -18.43457,17.57917 18.431085,17.572927 0 0 1 -18.42474,-17.57917 18.431085,17.572927 0 0 1 0.15251,-2.21407 h -0.26628 v -15.35517 c -1.18764,-19.19496 -17.66849,-38.37589 -38.60906,-40.38369 -2.00848,-0.0105 -4.02439,-0.31645 -6.03427,-0.29508 -0.66974,0.004 -1.33797,0.0547 -2.00529,0.16591 -22.65221,0.0631 -42.07404,19.83314 -42.5816,40.53036 v 15.35575 h -0.17188 a 18.431085,17.572927 0 0 1 0.17239,2.21407 18.431085,17.572927 0 0 1 -18.4258,17.57897 18.431085,17.572927 0 0 1 -18.43373,-17.57897 18.431085,17.572927 0 0 1 0.15301,-2.21407 h -0.27719 v -15.35615 c 0.20317,-43.45684 36.6817,-78.57628 81.59757,-78.5795 z" />
      <ellipse
         style="fill:#ffffff;stroke-width:0.978577"
         id="path851-3"
         ry="39.222126"
         rx="28.878832"
         cy="311.03848"
         cx="142.59634"
         transform="matrix(0.99820127,0.0599519,0.08722971,0.99618822,0,0)" />
      <ellipse
         style="fill:#ffffff;stroke-width:0.978577"
         id="path851-3-1"
         ry="39.222126"
         rx="28.878832"
         cy="347.55301"
         cx="-460.75009"
         transform="matrix(-0.99820127,0.0599519,-0.08722971,0.99618822,0,0)" />
      <path
         style="fill:#1a1a1a;stroke:#000000;stroke-width:1.99998;stroke-opacity:1;paint-order:stroke fill markers"
         d="m 282.04837,559.33077 c -29.80953,-3.9459 -51.98505,-10.45474 -74.26432,-21.79771 -19.46994,-9.91266 -35.71499,-21.7866 -51.7648,-37.83626 -35.20665,-35.20636 -54.73963,-76.86119 -60.404109,-128.81415 -3.84417,-35.25761 2.829807,-73.24506 18.932149,-107.75924 23.57654,-50.53462 66.33122,-89.35024 118.27297,-107.37631 45.88502,-15.92411 89.20541,-15.63005 135.51039,0.91984 97.54654,34.86417 154.8382,142.96318 129.63282,244.5937 -17.10211,68.95731 -66.3326,123.74913 -131.95829,146.86503 -26.34981,9.28139 -62.27143,14.07559 -83.95681,11.2051 z m 82.39383,-45.78226 c 8.79587,-4.64114 16.03543,-12.38364 20.40071,-21.81789 2.96211,-6.40174 3.11185,-9.03655 3.11185,-54.75503 0,-45.4297 -0.17666,-48.58967 -3.2632,-58.37453 -3.78754,-12.00715 -11.5955,-25.63773 -19.36655,-33.80873 -8.09066,-8.50707 -23.49168,-18.01244 -36.65718,-22.62449 -10.32578,-3.61725 -13.74942,-4.08109 -30.12295,-4.08109 -16.41474,0 -19.78419,0.45911 -30.23957,4.12023 -12.96576,4.54019 -28.12695,13.94479 -36.54056,22.66635 -7.71686,7.99932 -15.55873,21.65629 -19.36656,33.72773 -3.09077,9.79828 -3.26319,12.92162 -3.26319,59.11345 0,48.3699 0.0285,48.82296 3.48447,55.41886 6.11796,11.67636 15.86813,19.8705 28.28929,23.77458 2.03204,0.63868 28.96584,1.03714 59.85289,0.88547 l 56.15827,-0.27576 z M 180.56482,357.1283 c 20.26037,-5.62726 24.86085,-40.95518 8.36572,-64.24172 -6.85516,-9.67758 -13.47701,-13.30053 -24.31012,-13.30053 -8.55045,0 -9.66541,0.39028 -14.49903,5.07516 -7.85403,7.61234 -10.19413,15.22328 -9.44406,30.7158 0.54509,11.25895 1.29405,14.2242 5.6553,22.39035 5.31037,9.94331 11.59907,16.02346 19.55885,18.91021 6.15559,2.23243 8.04912,2.29059 14.67334,0.45073 z m 253.62019,-0.76967 c 26.06926,-10.87306 34.0613,-57.51079 12.61303,-73.60357 -12.84635,-9.63868 -33.50781,-0.0807 -42.27526,19.55656 -3.7974,8.50541 -5.16409,28.33054 -2.52117,36.57247 5.21113,16.25094 18.20344,23.30534 32.1834,17.47454 z M 250.22933,289.42059 c 4.50443,-4.50438 4.63374,-5.01964 5.52207,-22.00183 1.07621,-20.57414 3.29234,-26.05137 14.68474,-36.29403 17.45865,-15.69669 43.44639,-15.16686 59.83324,1.21983 9.04217,9.0421 11.53968,15.74329 12.70355,34.08563 1.15531,18.2077 2.372,21.60438 9.2383,25.79102 9.12418,5.56336 22.42525,2.62265 26.85141,-5.93653 3.06626,-5.92944 3.05322,-34.7359 -0.0212,-46.5388 -11.53979,-44.30386 -61.47831,-70.31018 -106.18795,-55.29916 -20.56735,6.90536 -38.51335,22.58881 -47.48855,41.50137 -6.5253,13.75011 -8.47889,24.55282 -7.85893,43.45691 0.45021,13.72761 0.83683,15.48928 4.19058,19.09437 5.07414,5.45441 8.42161,6.66365 16.76311,6.05545 5.64809,-0.41182 8.12955,-1.49432 11.76951,-5.13423 z"
         id="path3" />
      <path
         style="fill:#1a1a1a;stroke:#000000;stroke-width:1.99998;stroke-opacity:1;paint-order:stroke fill markers"
         d="m 279.6012,472.64078 c -1.57997,-1.00182 -1.23065,-4.63486 1.84731,-19.21275 5.1426,-24.35647 5.0756,-25.27409 -2.27723,-31.18294 -14.41035,-11.58036 -15.7678,-32.5958 -2.99489,-46.36558 6.83154,-7.36472 14.26563,-10.22981 24.80253,-9.55887 11.16551,0.71095 20.03615,6.09186 25.21871,15.29756 7.82529,13.90002 5.71929,26.77512 -6.37354,38.96466 -4.38823,4.42331 -7.97857,8.87579 -7.97857,9.89442 0,1.01861 2.03281,10.64895 4.51736,21.40074 3.62116,15.67047 4.13422,19.79168 2.58623,20.77345 -2.52571,1.60186 -36.81947,1.59254 -39.34791,-0.0105 z"
         id="path4" />
    </g>
  </g>
</svg>
